<svg xmlns="http://www.w3.org/2000/svg" xmlns:xlink="http://www.w3.org/1999/xlink" width="500" zoomAndPan="magnify" viewBox="0 0 375 374.999991" height="500" preserveAspectRatio="xMidYMid meet" version="1.0"><defs><g/><clipPath id="52221e7e81"><path d="M 125 107 L 282.636719 107 L 282.636719 240.894531 L 125 240.894531 Z M 125 107 " clip-rule="nonzero"/></clipPath><clipPath id="15986d83c2"><path d="M 95.964844 54.222656 L 253 54.222656 L 253 188 L 95.964844 188 Z M 95.964844 54.222656 " clip-rule="nonzero"/></clipPath></defs><g clip-path="url(#52221e7e81)"><path fill="#fbb040" d="M 273.792969 107.910156 C 274.3125 108.964844 274.808594 110.117188 275.285156 111.242188 C 278.210938 118.160156 280.269531 125.328125 281.445312 132.6875 C 282.230469 137.574219 282.621094 142.539062 282.621094 147.5625 C 282.621094 160.152344 280.152344 172.378906 275.285156 183.890625 C 270.582031 195.007812 263.855469 204.988281 255.289062 213.554688 C 246.722656 222.121094 236.742188 228.851562 225.628906 233.554688 C 214.117188 238.421875 201.890625 240.898438 189.300781 240.898438 C 176.707031 240.898438 164.484375 238.445312 152.972656 233.578125 C 142.980469 229.351562 133.910156 223.542969 125.953125 216.15625 L 189.296875 216.15625 C 227.082031 216.15625 257.824219 185.355469 257.824219 147.570312 C 257.824219 142.460938 257.261719 137.460938 256.199219 132.632812 L 189.304688 132.632812 L 189.304688 132.683594 C 180.980469 132.6875 174.339844 139.429688 174.339844 147.660156 C 174.339844 155.886719 181.046875 162.632812 189.296875 162.632812 L 226.144531 162.632812 C 224.171875 167.457031 221.222656 171.914062 217.402344 175.734375 C 209.894531 183.238281 199.910156 187.324219 189.296875 187.324219 C 178.679688 187.324219 168.699219 183.195312 161.195312 175.707031 C 153.683594 168.207031 149.546875 158.226562 149.546875 147.609375 C 149.546875 136.988281 153.6875 127.011719 161.203125 119.511719 C 168.710938 112.019531 178.6875 107.90625 189.308594 107.90625 Z M 273.792969 107.910156 " fill-opacity="1" fill-rule="nonzero"/></g><g clip-path="url(#15986d83c2)"><path fill="#00aeef" d="M 95.984375 147.566406 C 95.984375 134.972656 98.449219 122.738281 103.320312 111.230469 C 108.023438 100.113281 114.75 90.132812 123.316406 81.566406 C 131.882812 73 141.859375 66.269531 152.976562 61.566406 C 164.488281 56.699219 176.710938 54.222656 189.304688 54.222656 C 201.894531 54.222656 214.121094 56.675781 225.632812 61.542969 C 235.625 65.769531 244.695312 71.578125 252.652344 78.964844 L 189.304688 78.964844 C 151.515625 78.964844 120.773438 109.757812 120.773438 147.546875 C 120.773438 162.359375 125.5 176.058594 133.523438 187.363281 L 104.859375 187.363281 C 104.328125 186.160156 103.8125 185.070312 103.324219 183.910156 C 98.449219 172.394531 95.984375 160.160156 95.984375 147.566406 Z M 95.984375 147.566406 " fill-opacity="1" fill-rule="nonzero"/></g><g fill="#fca203" fill-opacity="1"><g transform="translate(72.043822, 281.776038)"><g><path d="M 20.984375 -14.890625 L 29.265625 -14.890625 L 29.265625 -2.953125 C 27.597656 -1.785156 25.660156 -0.894531 23.453125 -0.28125 C 21.242188 0.332031 19.078125 0.640625 16.953125 0.640625 C 13.941406 0.640625 11.238281 0.015625 8.84375 -1.234375 C 6.445312 -2.484375 4.566406 -4.226562 3.203125 -6.46875 C 1.847656 -8.71875 1.171875 -11.269531 1.171875 -14.125 C 1.171875 -16.976562 1.847656 -19.523438 3.203125 -21.765625 C 4.566406 -24.015625 6.460938 -25.765625 8.890625 -27.015625 C 11.328125 -28.265625 14.082031 -28.890625 17.15625 -28.890625 C 19.925781 -28.890625 22.40625 -28.425781 24.59375 -27.5 C 26.789062 -26.570312 28.613281 -25.222656 30.0625 -23.453125 L 23.96875 -18.078125 C 22.195312 -20.148438 20.085938 -21.1875 17.640625 -21.1875 C 15.535156 -21.1875 13.863281 -20.550781 12.625 -19.28125 C 11.394531 -18.019531 10.78125 -16.300781 10.78125 -14.125 C 10.78125 -12 11.390625 -10.289062 12.609375 -9 C 13.835938 -7.707031 15.472656 -7.0625 17.515625 -7.0625 C 18.722656 -7.0625 19.878906 -7.289062 20.984375 -7.75 Z M 20.984375 -14.890625 "/></g></g></g><g fill="#fca203" fill-opacity="1"><g transform="translate(106.144729, 281.776038)"><g><path d="M 17.109375 0.640625 C 14.066406 0.640625 11.332031 0.0078125 8.90625 -1.25 C 6.488281 -2.507812 4.59375 -4.265625 3.21875 -6.515625 C 1.851562 -8.765625 1.171875 -11.300781 1.171875 -14.125 C 1.171875 -16.945312 1.851562 -19.484375 3.21875 -21.734375 C 4.59375 -23.984375 6.488281 -25.738281 8.90625 -27 C 11.332031 -28.257812 14.066406 -28.890625 17.109375 -28.890625 C 20.148438 -28.890625 22.878906 -28.257812 25.296875 -27 C 27.722656 -25.738281 29.617188 -23.984375 30.984375 -21.734375 C 32.359375 -19.484375 33.046875 -16.945312 33.046875 -14.125 C 33.046875 -11.300781 32.359375 -8.765625 30.984375 -6.515625 C 29.617188 -4.265625 27.722656 -2.507812 25.296875 -1.25 C 22.878906 0.0078125 20.148438 0.640625 17.109375 0.640625 Z M 17.109375 -7.0625 C 18.296875 -7.0625 19.363281 -7.347656 20.3125 -7.921875 C 21.269531 -8.503906 22.03125 -9.328125 22.59375 -10.390625 C 23.164062 -11.453125 23.453125 -12.695312 23.453125 -14.125 C 23.453125 -15.550781 23.164062 -16.796875 22.59375 -17.859375 C 22.03125 -18.921875 21.269531 -19.738281 20.3125 -20.3125 C 19.363281 -20.894531 18.296875 -21.1875 17.109375 -21.1875 C 15.929688 -21.1875 14.863281 -20.894531 13.90625 -20.3125 C 12.945312 -19.738281 12.1875 -18.921875 11.625 -17.859375 C 11.0625 -16.796875 10.78125 -15.550781 10.78125 -14.125 C 10.78125 -12.695312 11.0625 -11.453125 11.625 -10.390625 C 12.1875 -9.328125 12.945312 -8.503906 13.90625 -7.921875 C 14.863281 -7.347656 15.929688 -7.0625 17.109375 -7.0625 Z M 17.109375 -7.0625 "/></g></g></g><g fill="#00aeef" fill-opacity="1"><g transform="translate(151.919834, 281.776038)"><g><path d="M 20.984375 -14.890625 L 29.265625 -14.890625 L 29.265625 -2.953125 C 27.597656 -1.785156 25.660156 -0.894531 23.453125 -0.28125 C 21.242188 0.332031 19.078125 0.640625 16.953125 0.640625 C 13.941406 0.640625 11.238281 0.015625 8.84375 -1.234375 C 6.445312 -2.484375 4.566406 -4.226562 3.203125 -6.46875 C 1.847656 -8.71875 1.171875 -11.269531 1.171875 -14.125 C 1.171875 -16.976562 1.847656 -19.523438 3.203125 -21.765625 C 4.566406 -24.015625 6.460938 -25.765625 8.890625 -27.015625 C 11.328125 -28.265625 14.082031 -28.890625 17.15625 -28.890625 C 19.925781 -28.890625 22.40625 -28.425781 24.59375 -27.5 C 26.789062 -26.570312 28.613281 -25.222656 30.0625 -23.453125 L 23.96875 -18.078125 C 22.195312 -20.148438 20.085938 -21.1875 17.640625 -21.1875 C 15.535156 -21.1875 13.863281 -20.550781 12.625 -19.28125 C 11.394531 -18.019531 10.78125 -16.300781 10.78125 -14.125 C 10.78125 -12 11.390625 -10.289062 12.609375 -9 C 13.835938 -7.707031 15.472656 -7.0625 17.515625 -7.0625 C 18.722656 -7.0625 19.878906 -7.289062 20.984375 -7.75 Z M 20.984375 -14.890625 "/></g></g></g><g fill="#00aeef" fill-opacity="1"><g transform="translate(182.952553, 281.776038)"><g><path d="M 25.796875 -7.1875 L 25.796875 0 L 2.296875 0 L 2.296875 -28.25 L 25.265625 -28.25 L 25.265625 -21.0625 L 11.65625 -21.0625 L 11.65625 -17.765625 L 23.609375 -17.765625 L 23.609375 -10.890625 L 11.65625 -10.890625 L 11.65625 -7.1875 Z M 25.796875 -7.1875 "/></g></g></g><g fill="#00aeef" fill-opacity="1"><g transform="translate(210.111226, 281.776038)"><g><path d="M 8.4375 -20.859375 L 0.15625 -20.859375 L 0.15625 -28.25 L 26.234375 -28.25 L 26.234375 -20.859375 L 17.953125 -20.859375 L 17.953125 0 L 8.4375 0 Z M 8.4375 -20.859375 "/></g></g></g><g fill="#00aeef" fill-opacity="1"><g transform="translate(236.503171, 281.776038)"><g><path d="M 8.4375 -20.859375 L 0.15625 -20.859375 L 0.15625 -28.25 L 26.234375 -28.25 L 26.234375 -20.859375 L 17.953125 -20.859375 L 17.953125 0 L 8.4375 0 Z M 8.4375 -20.859375 "/></g></g></g><g fill="#00aeef" fill-opacity="1"><g transform="translate(262.895115, 281.776038)"><g><path d="M 25.796875 -7.1875 L 25.796875 0 L 2.296875 0 L 2.296875 -28.25 L 25.265625 -28.25 L 25.265625 -21.0625 L 11.65625 -21.0625 L 11.65625 -17.765625 L 23.609375 -17.765625 L 23.609375 -10.890625 L 11.65625 -10.890625 L 11.65625 -7.1875 Z M 25.796875 -7.1875 "/></g></g></g><g fill="#00aeef" fill-opacity="1"><g transform="translate(290.053788, 281.776038)"><g><path d="M 14.40625 -7.109375 L 11.828125 -7.109375 L 11.828125 0 L 2.296875 0 L 2.296875 -28.25 L 15.90625 -28.25 C 18.507812 -28.25 20.78125 -27.816406 22.71875 -26.953125 C 24.65625 -26.097656 26.148438 -24.863281 27.203125 -23.25 C 28.253906 -21.632812 28.78125 -19.75 28.78125 -17.59375 C 28.78125 -15.570312 28.320312 -13.804688 27.40625 -12.296875 C 26.488281 -10.796875 25.171875 -9.601562 23.453125 -8.71875 L 29.375 0 L 19.21875 0 Z M 19.171875 -17.59375 C 19.171875 -18.644531 18.847656 -19.457031 18.203125 -20.03125 C 17.554688 -20.613281 16.585938 -20.90625 15.296875 -20.90625 L 11.828125 -20.90625 L 11.828125 -14.28125 L 15.296875 -14.28125 C 16.585938 -14.28125 17.554688 -14.566406 18.203125 -15.140625 C 18.847656 -15.722656 19.171875 -16.539062 19.171875 -17.59375 Z M 19.171875 -17.59375 "/></g></g></g><g fill="#020000" fill-opacity="1"><g transform="translate(122.46987, 314.13096)"><g><path d="M 0.34375 0 L 6.171875 -14.15625 L 7.828125 -14.15625 L 13.640625 0 L 11.765625 0 L 10.4375 -3.21875 L 3.53125 -3.21875 L 2.25 0 Z M 4.21875 -4.875 L 9.765625 -4.875 L 7 -11.671875 Z M 4.21875 -4.875 "/></g></g></g><g fill="#020000" fill-opacity="1"><g transform="translate(141.458964, 314.13096)"><g><path d="M 8.328125 0.265625 C 7.285156 0.265625 6.328125 0.0820312 5.453125 -0.28125 C 4.578125 -0.644531 3.816406 -1.15625 3.171875 -1.8125 C 2.535156 -2.46875 2.039062 -3.242188 1.6875 -4.140625 C 1.34375 -5.035156 1.171875 -6.015625 1.171875 -7.078125 C 1.171875 -8.140625 1.34375 -9.117188 1.6875 -10.015625 C 2.039062 -10.910156 2.535156 -11.6875 3.171875 -12.34375 C 3.816406 -13 4.578125 -13.507812 5.453125 -13.875 C 6.328125 -14.238281 7.285156 -14.421875 8.328125 -14.421875 C 9.453125 -14.421875 10.476562 -14.210938 11.40625 -13.796875 C 12.34375 -13.390625 13.144531 -12.800781 13.8125 -12.03125 C 14.488281 -11.269531 14.976562 -10.375 15.28125 -9.34375 L 13.390625 -9.34375 C 13.023438 -10.363281 12.394531 -11.164062 11.5 -11.75 C 10.601562 -12.34375 9.566406 -12.640625 8.390625 -12.640625 C 7.335938 -12.640625 6.40625 -12.398438 5.59375 -11.921875 C 4.789062 -11.453125 4.15625 -10.800781 3.6875 -9.96875 C 3.226562 -9.132812 3 -8.171875 3 -7.078125 C 3 -5.984375 3.226562 -5.019531 3.6875 -4.1875 C 4.15625 -3.351562 4.789062 -2.695312 5.59375 -2.21875 C 6.40625 -1.75 7.335938 -1.515625 8.390625 -1.515625 C 9.585938 -1.515625 10.648438 -1.820312 11.578125 -2.4375 C 12.515625 -3.0625 13.164062 -3.90625 13.53125 -4.96875 L 15.40625 -4.96875 C 15.125 -3.914062 14.640625 -3 13.953125 -2.21875 C 13.273438 -1.4375 12.453125 -0.828125 11.484375 -0.390625 C 10.523438 0.046875 9.472656 0.265625 8.328125 0.265625 Z M 8.328125 0.265625 "/></g></g></g><g fill="#020000" fill-opacity="1"><g transform="translate(162.955312, 314.13096)"><g><path d="M 0.34375 0 L 6.171875 -14.15625 L 7.828125 -14.15625 L 13.640625 0 L 11.765625 0 L 10.4375 -3.21875 L 3.53125 -3.21875 L 2.25 0 Z M 4.21875 -4.875 L 9.765625 -4.875 L 7 -11.671875 Z M 4.21875 -4.875 "/></g></g></g><g fill="#020000" fill-opacity="1"><g transform="translate(181.944406, 314.13096)"><g><path d="M 2.0625 0 L 2.0625 -14.15625 L 6.953125 -14.15625 C 8.410156 -14.15625 9.679688 -13.851562 10.765625 -13.25 C 11.847656 -12.65625 12.691406 -11.828125 13.296875 -10.765625 C 13.910156 -9.703125 14.21875 -8.472656 14.21875 -7.078125 C 14.21875 -5.691406 13.910156 -4.460938 13.296875 -3.390625 C 12.691406 -2.328125 11.847656 -1.492188 10.765625 -0.890625 C 9.679688 -0.296875 8.410156 0 6.953125 0 Z M 3.84375 -1.703125 L 6.953125 -1.703125 C 8.035156 -1.703125 8.984375 -1.925781 9.796875 -2.375 C 10.609375 -2.820312 11.242188 -3.453125 11.703125 -4.265625 C 12.160156 -5.078125 12.390625 -6.015625 12.390625 -7.078125 C 12.390625 -8.148438 12.15625 -9.085938 11.6875 -9.890625 C 11.226562 -10.691406 10.585938 -11.316406 9.765625 -11.765625 C 8.941406 -12.222656 7.976562 -12.453125 6.875 -12.453125 L 3.84375 -12.453125 Z M 3.84375 -1.703125 "/></g></g></g><g fill="#020000" fill-opacity="1"><g transform="translate(202.328654, 314.13096)"><g><path d="M 2.0625 0 L 2.0625 -14.15625 L 10.65625 -14.15625 L 10.65625 -12.5 L 3.84375 -12.5 L 3.84375 -8.03125 L 10.15625 -8.03125 L 10.15625 -6.390625 L 3.84375 -6.390625 L 3.84375 -1.65625 L 10.875 -1.65625 L 10.875 0 Z M 2.0625 0 "/></g></g></g><g fill="#020000" fill-opacity="1"><g transform="translate(219.518198, 314.13096)"><g><path d="M 2.0625 0 L 2.0625 -14.15625 L 3.71875 -14.15625 L 9.28125 -5.765625 L 14.796875 -14.15625 L 16.453125 -14.15625 L 16.453125 0 L 14.671875 0 L 14.671875 -10.8125 L 9.984375 -3.765625 L 8.53125 -3.765625 L 3.84375 -10.84375 L 3.84375 0 Z M 2.0625 0 "/></g></g></g><g fill="#020000" fill-opacity="1"><g transform="translate(243.0365, 314.13096)"><g><path d="M 5.65625 0 L 5.65625 -5.09375 L 0.34375 -14.15625 L 2.40625 -14.15625 L 4.71875 -10.1875 L 6.546875 -7 L 10.71875 -14.15625 L 12.71875 -14.15625 L 7.40625 -5.09375 L 7.40625 0 Z M 5.65625 0 "/></g></g></g></svg>